<svg width="200" height="50" viewBox="0 0 370 143" fill="none" xmlns="http://www.w3.org/2000/svg">
  <!-- Gradient Definition -->
  <defs>
    <linearGradient id="birdGradient" x1="0%" y1="0%" x2="100%" y2="100%">
      <stop offset="0%" stop-color="#fe8dc6" />
      <stop offset="100%" stop-color="#fed1c7" />
    </linearGradient>
    <linearGradient id="textGradient" x1="0%" y1="0%" x2="100%" y2="100%">
      <stop offset="0%" stop-color="#c276ac" />
      <stop offset="100%" stop-color="#e8a0c8" />
    </linearGradient>
  </defs>
  <!-- Looka Bird Symbol -->
  <g transform="matrix(1.0126644958413233,0,0,1.0126644958413233,-5.149517787494075,18.603094350145685)" fill="url(#birdGradient)" stroke="url(#birdGradient)" stroke-width="1.2">
    <path d="M26.09,25.26c0.78,0,1.41,0.65,1.41,1.44c0,0.8-0.63,1.44-1.41,1.44c-0.78,0-1.41-0.65-1.41-1.44C24.68,25.9,25.31,25.26,26.09,25.26z M28.1,91.26c1.28-0.84,2.82-1.67,4.25-2.439l1.01-0.541c0.33-0.18,0.63-0.369,0.9-0.579c0.79-0.601,1.23-1.25,1.34-1.94c0.12-0.76-0.11-1.65-0.65-2.65c-0.17-0.31-0.37-0.629-0.61-0.969c-1.1-0.271-2.12-0.33-2.99-0.141c-0.8,0.18-1.47,0.58-1.94,1.26c-0.49,0.7-0.86,2.52-1.08,4.49c-0.14,1.221-0.22,2.46-0.24,3.51H28.1z M33.77,91.46c-2.38,1.28-5.15,2.771-5.61,3.56l-0.04,0.07c-0.39,0.65-1.2,0.9-1.88,0.6l-0.02-0.01h-0.01l-0.02-0.01l-0.02-0.01c-0.35-0.18-0.64-0.49-0.76-0.9c-0.35-1.14-0.38-4.38-0.05-7.34c0.27-2.391,0.8-4.71,1.61-5.88c0.16-0.22,0.32-0.431,0.5-0.63C14.43,83.1,7.45,87.971,7.41,88c-0.68,0.46-1.61,0.279-2.07-0.4s-0.28-1.609,0.4-2.07C5.81,85.49,21.08,74.82,48.47,77.29v-1.95C41.2,74.41,33.8,70.8,28.09,65.48c-6.17-5.75-10.4-13.521-10.4-22.09c0-0.82,0.03-1.64,0.1-2.46c0.06-0.74,0.15-1.49,0.27-2.25c-0.08-1.01-0.19-2.6-0.23-4.53h-2.19c-0.83,0-1.5-0.67-1.5-1.5v-0.06l0,0V32.5v-0.07v-0.02h-0.01c0-1.76,0.73-3.35,1.9-4.5c0.59-0.57,1.28-1.04,2.05-1.36c0.15-1.52,0.38-3.02,0.71-4.44C20.59,14.47,32.86,9,34.11,8.46c0.12-0.06,0.26-0.11,0.4-0.14c0.81-0.16,1.6,0.38,1.75,1.19c0.01,0.05,3.33,17.15,4.51,19.81c1.01,2.27,2.25,3.48,2.48,3.69c0.17,0.14,0.31,0.33,0.41,0.53l35.27,21.601c0.07,0.039,0.131,0.08,0.19,0.129l7.69,4.48c0.709,0.41,0.959,1.33,0.539,2.04c-0.14,0.239-0.33,0.42-0.55,0.55l0,0c-0.649,0.37-1.35,0.73-2.079,1.08l4.439,3.221l0,0c0.52,0.379,0.76,1.069,0.529,1.709c-2.34,6.51-11.42,5.771-11.449,5.771l0,0c-0.58-0.04-1.1-0.42-1.311-1l-2.189-6.19c-0.84,0.221-1.66,0.43-2.471,0.61c-0.069,0.2-0.189,0.39-0.35,0.55c-2.189,2.221-4.811,4.08-8.08,5.391c-3.24,1.299-7.08,2.049-11.75,2.049c-0.23,0-0.46,0-0.699-0.01v2.03c12.389,1.5,27.1,5.69,43.85,14.58c0.73,0.38,1.01,1.29,0.63,2.021c-0.38,0.729-1.29,1.01-2.021,0.629C70.17,82.21,50.8,79.24,36.45,79.91c0.43,0.57,0.8,1.14,1.1,1.71c0.87,1.59,1.21,3.11,0.98,4.54c-0.23,1.49-1.05,2.79-2.49,3.88c-0.37,0.28-0.8,0.55-1.28,0.81c-0.7,0.381-0.88,0.48-1.03,0.561L33.77,91.46z M77.48,57.811c-0.08-0.051-0.16-0.101-0.23-0.17l-1.79-1.101L41.53,35.76c-0.35-0.21-0.58-0.55-0.67-0.91c-0.65-0.68-1.86-2.14-2.82-4.3C37,28.19,34.62,16.56,33.7,11.96c-3.38,1.66-10.8,5.81-11.98,10.84c-0.22,0.94-0.39,1.92-0.52,2.92c0.47,0.03,1.04,0.09,1.66,0.18c0.18-0.59,0.52-1.12,0.98-1.54c0.65-0.59,1.54-0.95,2.51-0.95c0.97,0,1.86,0.36,2.51,0.95c0.69,0.62,1.12,1.5,1.12,2.47c0,0.97-0.43,1.84-1.12,2.47c-0.24,0.21-0.51,0.4-0.8,0.55c0.16,3.17-1.79,8.48-7.05,9.42c-0.09,0.61-0.17,1.24-0.22,1.89c-0.06,0.72-0.09,1.47-0.09,2.22c0,7.67,3.84,14.681,9.44,19.899C36.28,69,44.5,72.57,52.13,72.57c4.271,0,7.75-0.67,10.63-1.82c1.45-0.58,2.75-1.29,3.94-2.1c-1.421,0.209-2.58,0.31-3.341,0.31c-3.779,0-7.34-0.95-10.469-2.64c-3.241-1.74-6.011-4.28-8.071-7.35c-0.17-0.261-0.32-0.48-0.44-0.681c-0.16-0.25-0.3-0.49-0.42-0.7c-0.41-0.72-0.16-1.63,0.56-2.04c0.72-0.409,1.63-0.159,2.04,0.56c0.13,0.23,0.25,0.431,0.36,0.601c0.15,0.24,0.27,0.44,0.38,0.601c0.12,0.18,0.24,0.359,0.37,0.529c1.75,2.43,4.01,4.43,6.63,5.85c2.7,1.461,5.78,2.281,9.05,2.281c0.74,0,1.9-0.121,3.34-0.341c2.311-0.36,5.32-0.989,8.431-1.86l0.14-0.039l0.04-0.01l0.05-0.011l0.03-0.01l0.021-0.011l0.05-0.01l0.05-0.01h0.01l0.04-0.01l0.05-0.01l0.041-0.01h0.01l0.05-0.011l0.05-0.01h0.02l0.03-0.011l0.05-0.01l0.041-0.01h0.01c1.779-0.52,3.57-1.119,5.24-1.79c0.029-0.01,0.06-0.021,0.09-0.04c0.43-0.17,0.84-0.35,1.25-0.529c0.16-0.07,0.31-0.141,0.459-0.211l-1.02-0.59l-4.439-2.58V57.811z M81.51,64.83c-1.26,0.48-2.57,0.92-3.869,1.33l1.779,5.05c1.74-0.03,5.359-0.39,6.971-2.83l-4.881-3.54V64.83z"/>
  </g>
  <!-- Dawning Text -->
  <g transform="matrix(2.0,0,0,2.0,115,18)" fill="url(#textGradient)" stroke="url(#textGradient)" stroke-width="0.8">
    <path d="M7.28 40.28 c-2 0.04 -2.56 -0.44 -2.68 -2.52 c-0.04 -0.4 0.2 -1.04 -0.24 -1.24 s-0.84 0.24 -1.2 0.52 c-1.4 1.04 -2.76 2.12 -4.44 2.6 c-1.44 0.44 -2.76 -0.68 -2.48 -2.12 c0.6 -2.92 3.96 -6.28 7.04 -5.96 c-0.04 0 0.2 0.04 0.36 -0.04 c0.88 -0.24 1.72 1 2.4 0.2 c0.56 -0.64 0.72 -1.56 1.08 -2.36 c1.84 -3.8 3.48 -7.72 6.28 -11.04 c0.4 -0.48 0.84 -1 1.36 -1.4 c1.36 -0.96 2.64 -0.4 2.88 1.28 c0.24 1.64 -0.32 3.12 -1.08 4.56 c-2.32 4.28 -5.76 7.6 -9.28 10.88 c-1.04 0.96 -1.64 1.96 -1.84 3.36 c-0.36 2.12 0.8 3.16 2.88 2.44 c1.52 -0.52 2.84 -1.48 3.96 -2.6 c1.52 -1.48 2.52 -2.6 4.04 -4.12 c0.16 -0.16 0.56 -0.44 0.6 -0.4 c0.44 0.36 -0.04 0.6 -0.2 0.8 c-1.88 2.32 -3.52 4.04 -5.96 5.8 c-1 0.76 -2.12 1.32 -3.48 1.36 z M9.36 30.72 c3.04 -3.04 6.04 -6.16 7.36 -10.44 c0.32 -0.96 0.64 -2.08 -0.36 -2.72 c-1.12 -0.72 -1.6 0.56 -2.16 1.16 c-2.56 2.88 -4.04 6.36 -5.68 9.76 c-1.92 4.08 -2.76 6.04 0.84 2.24 z M-2.6 38.56 c0.68 0.76 1.64 0.28 2.36 -0.12 c1.68 -0.92 3.24 -2.08 4.68 -3.32 c0.68 -0.56 1.24 -1.2 0.88 -2.04 c-0.36 -0.8 -1.28 -0.84 -2.08 -0.84 c-2.04 0 -4.32 1.6 -5.6 3.92 c-0.4 0.76 -0.88 1.68 -0.24 2.4 z M32.32 32.44 c0.4 0.32 -0.04 0.6 -0.24 0.76 c-2.16 2.12 -4.04 4.04 -6.6 5.64 c-0.48 0.28 -0.92 0.56 -1.4 0.76 c-0.92 0.36 -1.84 0.4 -2.64 -0.24 c-0.84 -0.68 -0.8 -1.64 -0.6 -2.56 c0.16 -0.68 0.4 -1.36 0.6 -2 c-1.76 0.84 -2.8 2.64 -4.44 3.68 c-0.56 0.36 -1.08 0.76 -1.68 1.04 c-0.72 0.32 -1.4 0.48 -2.04 -0.08 c-0.6 -0.56 -0.64 -1.32 -0.48 -2.04 c0.6 -2.84 4 -5.64 6.96 -5.72 c0.56 0 1.16 0.2 1.68 0.52 c0.24 0.16 0.44 0.56 0.8 0.36 c0.44 -0.24 0.8 -1 1.28 -0.2 c0.36 0.52 -0.16 0.96 -0.36 1.44 c-0.48 1 -1.12 1.96 -1.36 3.08 c-0.16 0.72 -0.4 1.4 0.32 1.96 c0.72 0.52 1.36 0.28 2.04 -0.08 c1.44 -0.68 2.72 -1.64 3.88 -2.76 c1.2 -1.16 2.28 -2 3.48 -3.16 c0.2 -0.24 0.48 -0.64 0.8 -0.4 z M20.6 34.24 c0.32 -0.32 0.68 -0.68 0.48 -1.2 c-0.28 -0.68 -0.92 -0.36 -1.32 -0.44 c-2.44 0 -5.04 2 -5.96 4.52 c-0.2 0.64 -0.56 1.28 0.12 1.8 c0.6 0.52 1.16 0.04 1.6 -0.24 c1.96 -1.16 3.48 -2.84 5.08 -4.44 z M30.16 39.48 c-0.84 -0.72 -0.56 -1.64 -0.36 -2.6 c0.4 -1.64 1.4 -3 2.2 -4.44 c0.2 -0.32 0.48 -0.76 0.92 -0.44 c0.32 0.24 0 0.64 -0.12 0.88 c-0.32 0.52 -0.68 1 -1 1.52 c-0.36 0.72 -0.76 1.4 -1.04 2.16 c-0.32 0.8 -0.64 1.88 0.08 2.4 c0.76 0.48 1.6 -0.36 2.24 -0.88 c0.2 -0.16 0.36 -0.4 0.6 -0.56 c0.4 -0.36 0.72 -1.2 1.28 -0.92 c0.72 0.28 -0.04 0.88 -0.04 1.4 c0.04 1.12 0.4 1.4 1.48 0.84 c1.52 -0.8 2.52 -2.16 3.44 -3.52 c0.32 -0.56 0.04 -0.88 -0.32 -1.2 c-1 -0.88 -0.96 -2 -0.84 -3.16 c0.16 -1.12 0.92 -1.8 2.04 -1.8 c1.16 0.04 1.44 0.8 1.52 2.04 c-0.04 0.48 -0.32 1.76 -0.72 2.52 c-0.12 0.56 0.12 0.88 1.52 0.52 c1.84 -0.48 3.4 -0.88 5.12 -1.72 c0.56 -0.36 0.96 -0.32 1.08 -0.04 c0.16 0.48 -0.48 0.52 -0.8 0.68 c-2.28 1 -4.24 2 -6.92 1.84 c-0.68 -0.04 -0.92 0.4 -1.2 0.84 c-0.68 1.08 -1.52 2.04 -2.48 2.88 c-1.48 1.32 -2.08 1.4 -3.72 0.24 c-0.64 -0.48 -0.96 0 -1.4 0.2 c-0.8 0.4 -1.64 1.08 -2.56 0.32 z M40.36 33.68 c0.96 0.12 1.76 -3.92 0.16 -3.72 c-0.84 0.12 -1.24 0.88 -1.2 1.8 c0.04 0.84 0.24 1.8 1.04 1.92 z M56.32 39.76 c-0.76 -0.8 -0.4 -1.88 -0.16 -2.84 c0.28 -1.08 0.76 -2.12 0.96 -3.2 c0.24 -1.16 -0.36 -1.6 -1.48 -1.16 c-1.76 0.64 -3.28 1.72 -4.6 3.04 c-1.16 1.16 -2.24 2.32 -3.4 3.44 c-0.28 0.28 -0.56 0.88 -1.12 0.56 c-0.36 -0.2 -0.24 -0.72 -0.16 -1.08 c0.36 -2.28 1.52 -4.2 2.44 -6.28 c0.08 -0.2 0.32 -0.32 0.44 -0.2 c0.12 0.2 0.2 0.52 0.12 0.72 c-0.48 1.16 -1.04 2.32 -1.52 3.48 c-0.2 0.48 -0.44 1 -0.56 1.48 c-0.04 0.2 -0.12 0.76 0.36 0.28 c2 -1.88 3.68 -4.04 6.16 -5.36 c1.04 -0.56 2.16 -1.76 3.4 -0.8 c1.32 1 0.6 2.44 0.24 3.68 c-0.24 0.92 -0.6 1.76 -0.76 2.68 c-0.2 1 0.16 1.48 1.32 1 c1.92 -0.84 3.48 -2.2 5.08 -3.44 c1.4 -1.12 2.48 -2.04 3.88 -3.16 c0.2 -0.2 0.56 -0.52 0.8 -0.2 c0.16 0.2 -0.2 0.4 -0.4 0.56 c-2.4 2.08 -4.52 3.92 -7.12 5.76 c-0.4 0.28 -0.8 0.52 -1.2 0.68 c-0.88 0.4 -1.8 1.28 -2.72 0.36 z M69.6 28.64 c-0.44 0.04 -0.72 -0.24 -0.8 -0.68 c-0.16 -1 0.76 -1.16 1.32 -1.44 c0.4 -0.2 0.68 0.2 0.8 0.64 c-0.24 0.64 -0.48 1.36 -1.32 1.48 z M67.72 39.68 c-1.48 0.44 -2.68 -0.56 -2.56 -2.16 c0.44 -1.68 1.24 -3.36 2.04 -5.04 c0.16 -0.32 0.44 -0.6 0.76 -0.36 c0.4 0.28 0.04 0.6 -0.08 0.88 c-0.52 1.2 -1.12 2.4 -1.56 3.64 c-0.24 0.72 -0.56 1.56 0.24 2.24 c0.52 0.4 1.4 0 2.04 -0.24 c2.52 -1.04 4.52 -3.96 7.44 -6.12 c0.2 -0.12 0.36 -0.44 0.6 -0.12 c0.2 0.24 -0.04 0.44 -0.24 0.56 c-3.88 2.8 -4.6 5.56 -8.68 6.72 z M83.88 39.76 c-0.76 -0.8 -0.4 -1.88 -0.16 -2.84 c0.28 -1.08 0.76 -2.12 0.96 -3.2 c0.24 -1.16 -0.36 -1.6 -1.48 -1.16 c-1.76 0.64 -3.28 1.72 -4.6 3.04 c-1.16 1.16 -2.24 2.32 -3.4 3.44 c-0.28 0.28 -0.56 0.88 -1.12 0.56 c-0.36 -0.2 -0.24 -0.72 -0.16 -1.08 c0.36 -2.28 1.52 -4.2 2.44 -6.28 c0.08 -0.2 0.32 -0.32 0.44 -0.2 c0.12 0.2 0.2 0.52 0.12 0.72 c-0.48 1.16 -1.04 2.32 -1.52 3.48 c-0.2 0.48 -0.44 1 -0.56 1.48 c-0.04 0.2 -0.12 0.76 0.36 0.28 c2 -1.88 3.68 -4.04 6.16 -5.36 c1.04 -0.56 2.16 -1.76 3.4 -0.8 c1.32 1 0.6 2.44 0.24 3.68 c-0.24 0.92 -0.6 1.76 -0.76 2.68 c-0.2 1 0.16 1.48 1.32 1 c1.92 -0.84 3.48 -2.2 5.08 -3.44 c1.4 -1.12 2.48 -2.04 3.88 -3.16 c0.2 -0.2 0.56 -0.52 0.8 -0.2 c0.16 0.2 -0.2 0.4 -0.4 0.56 c-2.4 2.08 -4.52 3.92 -7.12 5.76 c-0.4 0.28 -0.8 0.52 -1.2 0.68 c-0.88 0.4 -1.8 1.28 -2.72 0.36 z M109.84 32.36 c0.44 0.44 -0.12 0.68 -0.36 0.92 c-3.44 3 -6.96 5.28 -10.84 7.64 c-1.2 0.76 -1.96 1.64 -2.48 2.96 c-1.08 2.84 -2.24 5.68 -3.52 8.44 c-0.72 1.6 -1.52 3.2 -3.24 4.12 c-2.36 1.28 -4.44 0.16 -4.6 -2.52 c-0.08 -1.72 0.44 -3.24 1.52 -4.6 c2.12 -2.68 4.84 -4.72 7.8 -6.4 c1.6 -0.88 2.68 -2.04 3.16 -3.76 c0.32 -1 1.04 -1.8 1.08 -2.88 c-1.24 0.4 -1.76 1.64 -2.76 2.36 c-1.04 0.68 -2.12 2.08 -3.44 1.12 c-1.16 -0.88 -0.6 -2.4 -0.24 -3.68 c0.52 -1.72 1.52 -3.08 3.2 -3.84 c1.24 -0.6 2.52 -0.8 3.76 0 c0.28 0.16 0.44 0.44 0.88 0.32 c0.96 -0.24 1.2 -0.04 0.88 0.84 c-0.92 2.28 -1.76 4.56 -2.92 6.72 c0 0.04 0.08 0.08 0.16 0.08 c0.44 0.04 2.04 -0.96 2.12 -1 c3.24 -2.08 6.12 -4 9.04 -6.48 c0.24 -0.2 0.52 -0.64 0.8 -0.36 z M93.96 38.92 c1.64 -0.92 2.84 -2.4 4.04 -3.8 c0.48 -0.56 1.28 -1.2 0.6 -2.08 c-0.64 -0.8 -1.56 -0.64 -2.4 -0.4 c-2 0.56 -3.88 3.16 -3.88 5.28 c-0.04 1.44 0.4 1.72 1.64 1 z M91.16 53.52 c1.64 -3.24 3 -6.6 4.08 -10.08 c0 -0.04 0 -0.16 -0.12 -0.12 c-3.36 1.56 -6.12 3.92 -8.48 6.72 c-0.96 1.16 -1.32 2.56 -1.12 4.08 c0.2 1.84 1.64 2.6 3.28 1.76 c1.04 -0.52 1.84 -1.36 2.36 -2.36 z"/>
  </g>
</svg>
